# xmcd
#
# Track frame offsets:
# 150
# 13425
# 22200
# 32400
# 43988
# 58650
# 69563
# 82225
# 93900
# 104200
# 115688
# 127463
# 143625
# 154013
#
# Disc length: 2184 seconds
#
#
# Revision: 0
# Processed by: cddbd v1.5.1PL0 Copyright (c) Steve Scherf et al.
# Submitted via: FreeRIP 2.80 
#
DISCID=d108860e
DTITLE=Various Artist - Troubles Troubles
DYEAR=1900
DGENRE=Blues
TTITLE0=Troubles Troubles
TTITLE1=She's Mine all mine
TTITLE2=I'm on my way
TTITLE3=Easy Rockin
TTITLE4=You sure is fine
TTITLE5=Bopsody in blues
TTITLE6=Blues cha cha
TTITLE7=lost lover
TTITLE8=bony marone and friends
TTITLE9=cool down baby
TTITLE10=amen
TTITLE11=the blue eagle part 1
TTITLE12=pleading
TTITLE13=counrty baby
EXTD=
EXTT0=
EXTT1=
EXTT2=
EXTT3=
EXTT4=
EXTT5=
EXTT6=
EXTT7=
EXTT8=
EXTT9=
EXTT10=
EXTT11=
EXTT12=
EXTT13=
PLAYORDER=
